<svg width="16" height="16" viewBox="0 0 16 16" fill="none" xmlns="http://www.w3.org/2000/svg">
<path d="M8 0C3.58125 0 0 3.58125 0 8C0 12.4187 3.58125 16 8 16C12.4187 16 16 12.4187 16 8C16 3.58125 12.4187 0 8 0ZM11.5 11.75C11.5 11.8875 11.3875 12 11.25 12H9.75C9.6125 12 9.5 11.8875 9.5 11.75V9H6.5V11.75C6.5 11.8875 6.3875 12 6.25 12H4.75C4.6125 12 4.5 11.8875 4.5 11.75V4.25C4.5 4.1125 4.6125 4 4.75 4H6.25C6.3875 4 6.5 4.1125 6.5 4.25V7H9.5V4.25C9.5 4.1125 9.6125 4 9.75 4H11.25C11.3875 4 11.5 4.1125 11.5 4.25V11.75Z" fill="#00AEEF"/>
</svg>
