<svg width="29" height="27" viewBox="0 0 29 27" fill="none" xmlns="http://www.w3.org/2000/svg">
<rect x="0.333496" width="28" height="27" rx="6" fill="#0E76BC"/>
<path d="M21.4948 10.6774H19.8666C18.9593 8.51694 16.823 7 14.3335 7C11.019 7 8.33349 9.68548 8.33349 13C8.33349 13.3968 8.3722 13.7863 8.4472 14.1613H7.1722C6.85042 14.1613 6.59155 14.4226 6.59155 14.7419C6.59155 15.0637 6.85042 15.3226 7.1722 15.3226H8.80042C9.70768 17.4831 11.844 19 14.3335 19C17.648 19 20.3335 16.3145 20.3335 13C20.3335 12.6032 20.2948 12.2137 20.2198 11.8387H21.4948C21.8166 11.8387 22.0754 11.5774 22.0754 11.2581C22.0754 10.9363 21.8166 10.6774 21.4948 10.6774ZM19.1722 13C19.1722 15.6734 17.0069 17.8387 14.3335 17.8387C12.502 17.8387 10.9077 16.8226 10.0875 15.3226H16.8496C17.1714 15.3226 17.4303 15.0613 17.4303 14.7419C17.4303 14.4202 17.1714 14.1613 16.8496 14.1613H9.6351C9.54317 13.7887 9.49478 13.4016 9.49478 13C9.49478 10.3266 11.6601 8.16129 14.3335 8.16129C16.1649 8.16129 17.7593 9.17742 18.5795 10.6774H11.8174C11.4956 10.6774 11.2367 10.9387 11.2367 11.2581C11.2367 11.5798 11.4956 11.8387 11.8174 11.8387H19.0319C19.1238 12.2113 19.1722 12.5984 19.1722 13ZM11.8174 12.4194H16.8496C17.1714 12.4194 17.4303 12.6782 17.4303 13C17.4303 13.3194 17.1714 13.5806 16.8496 13.5806H11.8174C11.4956 13.5806 11.2367 13.3218 11.2367 13C11.2367 12.6806 11.4956 12.4194 11.8174 12.4194Z" fill="white"/>
</svg>
