<svg width="25" height="25" viewBox="0 0 25 25" fill="none" xmlns="http://www.w3.org/2000/svg">
<rect width="25" height="25" rx="3" fill="white"/>
<path d="M6.62498 18.6875V19.5625C6.62498 19.8042 6.82076 20 7.06247 20H13.1874C13.4291 20 13.6249 19.8042 13.6249 19.5625V10.1905C13.7496 10.1358 13.8688 10.0716 13.9801 9.99583L17.8643 11.2982C18.0934 11.375 18.3414 11.2514 18.4182 11.0226L18.6963 10.193C18.7732 9.96383 18.6496 9.71583 18.4207 9.63899L14.9098 8.46185C14.9213 8.37107 14.9374 8.28139 14.9374 8.1876C14.9374 6.97956 13.958 6.00012 12.7499 6.00012C11.9381 6.00012 11.2378 6.44746 10.8602 7.10397L7.63559 6.02281C7.40646 5.94598 7.15845 6.06957 7.08161 6.29843L6.80353 7.12804C6.7267 7.35718 6.85029 7.60518 7.07915 7.68202L10.6885 8.89224C10.8876 9.47329 11.3163 9.94606 11.8747 10.1902V18.25H7.06247C6.82076 18.25 6.62498 18.4458 6.62498 18.6875ZM4 14.3125C4 15.5206 5.56706 16.5 7.49997 16.5C9.43288 16.5 10.9999 15.5206 10.9999 14.3125H10.9994C10.9994 13.8841 11.0563 14.1143 8.67383 9.34942C8.19039 8.38256 6.80845 8.38447 6.32584 9.34942C3.96391 14.0738 4.00055 13.8701 4.00055 14.3125H4ZM5.53124 13.8751L7.49997 9.93758L9.4687 13.8751H5.53124ZM14.5005 17.8125H14.4999C14.4999 19.0206 16.067 20 17.9999 20C19.9328 20 21.4999 19.0206 21.4999 17.8125H21.4993C21.4993 17.384 21.5562 17.6143 19.1737 12.8494C18.6903 11.8825 17.3084 11.8844 16.8258 12.8494C14.4638 17.5738 14.5005 17.3701 14.5005 17.8125ZM16.0311 17.375L17.9999 13.4376L19.9686 17.375H16.0311Z" fill="#0E76BC"/>
</svg>
