<svg width="25" height="25" viewBox="0 0 25 25" fill="none" xmlns="http://www.w3.org/2000/svg">
<path d="M1.5625 1.5625V7.8125H7.8125V1.5625H1.5625ZM7.42188 7.42188H1.95312V1.95312H7.42188V7.42188ZM9.375 1.5625V7.8125H15.625V1.5625H9.375ZM15.2344 7.42188H9.76562V1.95312H15.2344V7.42188ZM17.1875 1.5625V7.8125H23.4375V1.5625H17.1875ZM23.0469 7.42188H17.5781V1.95312H23.0469V7.42188ZM1.5625 9.375V15.625H7.8125V9.375H1.5625ZM7.42188 15.2344H1.95312V9.76562H7.42188V15.2344ZM9.375 9.375V15.625H15.625V9.375H9.375ZM15.2344 15.2344H9.76562V9.76562H15.2344V15.2344ZM17.1875 9.375V15.625H23.4375V9.375H17.1875ZM23.0469 15.2344H17.5781V9.76562H23.0469V15.2344ZM1.5625 17.1875V23.4375H7.8125V17.1875H1.5625ZM7.42188 23.0469H1.95312V17.5781H7.42188V23.0469ZM9.375 17.1875V23.4375H15.625V17.1875H9.375ZM15.2344 23.0469H9.76562V17.5781H15.2344V23.0469ZM17.1875 17.1875V23.4375H23.4375V17.1875H17.1875Z" fill="white"/>
</svg>
