<svg width="29" height="27" viewBox="0 0 29 27" fill="none" xmlns="http://www.w3.org/2000/svg">
<rect x="0.333496" width="28" height="27" rx="6" fill="#0E76BC"/>
<path d="M14.3335 8C11.2961 8 8.8335 10.4635 8.8335 13.5C8.8335 16.5382 11.2961 19 14.3335 19C17.3708 19 19.8335 16.5382 19.8335 13.5C19.8335 10.4635 17.3708 8 14.3335 8ZM14.3335 10.4395C14.8479 10.4395 15.2649 10.8565 15.2649 11.371C15.2649 11.8854 14.8479 12.3024 14.3335 12.3024C13.8191 12.3024 13.402 11.8854 13.402 11.371C13.402 10.8565 13.8191 10.4395 14.3335 10.4395ZM15.5754 16.0726C15.5754 16.2196 15.4563 16.3387 15.3093 16.3387H13.3577C13.2107 16.3387 13.0916 16.2196 13.0916 16.0726V15.5403C13.0916 15.3934 13.2107 15.2742 13.3577 15.2742H13.6238V13.8548H13.3577C13.2107 13.8548 13.0916 13.7357 13.0916 13.5887V13.0565C13.0916 12.9095 13.2107 12.7903 13.3577 12.7903H14.777C14.924 12.7903 15.0432 12.9095 15.0432 13.0565V15.2742H15.3093C15.4563 15.2742 15.5754 15.3934 15.5754 15.5403V16.0726Z" fill="white"/>
</svg>
