<svg width="25" height="25" viewBox="0 0 25 25" fill="none" xmlns="http://www.w3.org/2000/svg">
<g clip-path="url(#clip0_558_1692)">
<path d="M12.5 0C5.5957 0 0 5.5957 0 12.5C0 19.4043 5.5957 25 12.5 25C19.4043 25 25 19.4043 25 12.5C25 5.5957 19.4043 0 12.5 0ZM17.9688 18.3594C17.9688 18.5742 17.793 18.75 17.5781 18.75H15.2344C15.0195 18.75 14.8438 18.5742 14.8438 18.3594V14.0625H10.1562V18.3594C10.1562 18.5742 9.98047 18.75 9.76562 18.75H7.42188C7.20703 18.75 7.03125 18.5742 7.03125 18.3594V6.64062C7.03125 6.42578 7.20703 6.25 7.42188 6.25H9.76562C9.98047 6.25 10.1562 6.42578 10.1562 6.64062V10.9375H14.8438V6.64062C14.8438 6.42578 15.0195 6.25 15.2344 6.25H17.5781C17.793 6.25 17.9688 6.42578 17.9688 6.64062V18.3594Z" fill="white"/>
</g>
<defs>
<clipPath id="clip0_558_1692">
<rect width="25" height="25" fill="white"/>
</clipPath>
</defs>
</svg>
