<svg width="29" height="27" viewBox="0 0 29 27" fill="none" xmlns="http://www.w3.org/2000/svg">
<rect width="28.3333" height="27" rx="6" fill="#0E76BC"/>
<path d="M10.0417 13.5C11.3052 13.5 12.3333 12.4719 12.3333 11.2083C12.3333 9.94477 11.3052 8.91667 10.0417 8.91667C8.7781 8.91667 7.75 9.94477 7.75 11.2083C7.75 12.4719 8.7781 13.5 10.0417 13.5ZM20.125 9.83333H13.7083C13.4551 9.83333 13.25 10.0384 13.25 10.2917V14.4167H6.83333V8.45833C6.83333 8.2051 6.62823 8 6.375 8H5.45833C5.2051 8 5 8.2051 5 8.45833V18.5417C5 18.7949 5.2051 19 5.45833 19H6.375C6.62823 19 6.83333 18.7949 6.83333 18.5417V17.1667H21.5V18.5417C21.5 18.7949 21.7051 19 21.9583 19H22.875C23.1282 19 23.3333 18.7949 23.3333 18.5417V13.0417C23.3333 11.2696 21.897 9.83333 20.125 9.83333Z" fill="white"/>
</svg>
