<svg width="29" height="27" viewBox="0 0 29 27" fill="none" xmlns="http://www.w3.org/2000/svg">
<rect x="0.333374" width="28" height="27" rx="6" fill="#0E76BC"/>
<path d="M11.9271 14.875H20.1771C20.3662 14.875 20.5209 14.7203 20.5209 14.5312V9.03125C20.5209 8.84219 20.3662 8.6875 20.1771 8.6875H17.0834V11.4375L16.0521 10.75L15.0209 11.4375V8.6875H11.9271C11.7381 8.6875 11.5834 8.84219 11.5834 9.03125V14.5312C11.5834 14.7203 11.7381 14.875 11.9271 14.875ZM20.8646 16.25H10.2084V8.34375C10.2084 8.15469 10.0537 8 9.86462 8H7.80212C7.61306 8 7.45837 8.15469 7.45837 8.34375V9.03125C7.45837 9.22031 7.61306 9.375 7.80212 9.375H8.83337V17.2812C8.83337 17.4703 8.98806 17.625 9.17712 17.625H10.9582C10.9195 17.7324 10.8959 17.8484 10.8959 17.9688C10.8959 18.5381 11.3578 19 11.9271 19C12.4965 19 12.9584 18.5381 12.9584 17.9688C12.9584 17.8484 12.9326 17.7324 12.8961 17.625H17.1478C17.1092 17.7324 17.0855 17.8484 17.0855 17.9688C17.0855 18.5381 17.5474 19 18.1168 19C18.6861 19 19.148 18.5381 19.148 17.9688C19.148 17.8484 19.1222 17.7324 19.0857 17.625H20.8646C21.0537 17.625 21.2084 17.4703 21.2084 17.2812V16.5938C21.2084 16.4047 21.0537 16.25 20.8646 16.25Z" fill="white"/>
</svg>
