<svg width="9" height="8" viewBox="0 0 9 8" fill="none" xmlns="http://www.w3.org/2000/svg">
<path d="M7.875 3.15625H5.34375V0.625C5.34375 0.314395 5.09186 0.0625 4.78125 0.0625H4.21875C3.90814 0.0625 3.65625 0.314395 3.65625 0.625V3.15625H1.125C0.814395 3.15625 0.5625 3.40814 0.5625 3.71875V4.28125C0.5625 4.59186 0.814395 4.84375 1.125 4.84375H3.65625V7.375C3.65625 7.68561 3.90814 7.9375 4.21875 7.9375H4.78125C5.09186 7.9375 5.34375 7.68561 5.34375 7.375V4.84375H7.875C8.18561 4.84375 8.4375 4.59186 8.4375 4.28125V3.71875C8.4375 3.40814 8.18561 3.15625 7.875 3.15625Z" fill="#0E76BC"/>
</svg>
