<svg width="29" height="27" viewBox="0 0 29 27" fill="none" xmlns="http://www.w3.org/2000/svg">
<rect x="0.333496" width="28.3333" height="27" rx="6" fill="#0E76BC"/>
<path d="M10.3752 13.5C11.6387 13.5 12.6668 12.4719 12.6668 11.2083C12.6668 9.94477 11.6387 8.91667 10.3752 8.91667C9.1116 8.91667 8.0835 9.94477 8.0835 11.2083C8.0835 12.4719 9.1116 13.5 10.3752 13.5ZM20.4585 9.83333H14.0418C13.7886 9.83333 13.5835 10.0384 13.5835 10.2917V14.4167H7.16683V8.45833C7.16683 8.2051 6.96173 8 6.7085 8H5.79183C5.5386 8 5.3335 8.2051 5.3335 8.45833V18.5417C5.3335 18.7949 5.5386 19 5.79183 19H6.7085C6.96173 19 7.16683 18.7949 7.16683 18.5417V17.1667H21.8335V18.5417C21.8335 18.7949 22.0386 19 22.2918 19H23.2085C23.4617 19 23.6668 18.7949 23.6668 18.5417V13.0417C23.6668 11.2696 22.2305 9.83333 20.4585 9.83333Z" fill="white"/>
</svg>
