<svg width="29" height="27" viewBox="0 0 29 27" fill="none" xmlns="http://www.w3.org/2000/svg">
<rect x="0.333374" width="28" height="27" rx="6" fill="#0E76BC"/>
<path d="M18.4393 10.4058C17.7045 10.4165 17.1008 11.016 17.0857 11.7508C17.075 12.2729 17.3543 12.7305 17.7733 12.9712V15.3904C17.7733 16.6215 16.6947 17.6249 15.3669 17.6249C14.0778 17.6249 13.0207 16.6774 12.9627 15.4936C14.5268 15.1713 15.7085 13.7833 15.7085 12.1246V8.78577C15.7085 8.54084 15.5345 8.32813 15.2938 8.28086L13.9424 8.01014C13.6631 7.95428 13.3924 8.13476 13.3365 8.41407L13.2677 8.75139C13.2119 9.03071 13.3924 9.30142 13.6717 9.35729L14.3313 9.48835V12.0967C14.3313 13.2333 13.4246 14.1743 12.288 14.1851C11.1407 14.1958 10.2061 13.2677 10.2061 12.1225V9.4905L10.8657 9.35943C11.145 9.30357 11.3255 9.03285 11.2696 8.75354L11.203 8.41622C11.1471 8.13691 10.8764 7.95643 10.5971 8.01229L9.2478 8.27871C9.00716 8.32813 8.83313 8.53869 8.83313 8.78577V12.1246C8.83313 13.7855 10.017 15.1756 11.5854 15.4936C11.6413 17.4359 13.315 19 15.3647 19C17.4488 19 19.1462 17.38 19.1462 15.3904V12.9712C19.5566 12.7327 19.8337 12.2901 19.8337 11.7809C19.8337 11.0138 19.2064 10.395 18.4393 10.4058ZM18.4587 12.1246C18.2696 12.1246 18.1149 11.9699 18.1149 11.7809C18.1149 11.5918 18.2696 11.4371 18.4587 11.4371C18.6477 11.4371 18.8024 11.5918 18.8024 11.7809C18.8024 11.9699 18.6477 12.1246 18.4587 12.1246Z" fill="white"/>
</svg>
