<svg width="25" height="25" viewBox="0 0 25 25" fill="none" xmlns="http://www.w3.org/2000/svg">
<g clip-path="url(#clip0_558_1686)">
<path d="M12.5 2.77783C5.59635 2.77783 0 8.37419 0 15.2778C0 17.5695 0.61849 19.7162 1.69531 21.5626C1.9388 21.9801 2.40278 22.2223 2.88628 22.2223H22.1137C22.5972 22.2223 23.0612 21.9801 23.3047 21.5626C24.3815 19.7162 25 17.5695 25 15.2778C25 8.37419 19.4036 2.77783 12.5 2.77783ZM12.5 5.55561C13.1385 5.55561 13.6536 5.99528 13.816 6.58209C13.7678 6.68018 13.7014 6.76568 13.6662 6.87158L13.2661 8.07254C13.0434 8.22401 12.7899 8.33339 12.5004 8.33339C11.7335 8.33339 11.1115 7.71143 11.1115 6.9445C11.1115 6.17757 11.7331 5.55561 12.5 5.55561ZM4.16667 18.0556C3.39974 18.0556 2.77778 17.4336 2.77778 16.6667C2.77778 15.8998 3.39974 15.2778 4.16667 15.2778C4.93359 15.2778 5.55556 15.8998 5.55556 16.6667C5.55556 17.4336 4.93359 18.0556 4.16667 18.0556ZM6.25 11.1112C5.48307 11.1112 4.86111 10.4892 4.86111 9.72228C4.86111 8.95535 5.48307 8.33339 6.25 8.33339C7.01693 8.33339 7.63889 8.95535 7.63889 9.72228C7.63889 10.4892 7.01693 11.1112 6.25 11.1112ZM16.9605 7.96837L14.2986 15.9545C14.8928 16.464 15.2778 17.211 15.2778 18.0556C15.2778 18.5643 15.1311 19.0343 14.8924 19.4445H10.1076C9.86892 19.0343 9.72222 18.5643 9.72222 18.0556C9.72222 16.5825 10.8724 15.3894 12.322 15.2956L14.9844 7.30908C15.1654 6.76394 15.7539 6.4649 16.3021 6.65066C16.8477 6.83252 17.1419 7.4228 16.9605 7.96837ZM17.5968 10.451L18.2704 8.43061C18.421 8.37462 18.5799 8.33382 18.75 8.33382C19.5169 8.33382 20.1389 8.95578 20.1389 9.72271C20.1389 10.4896 19.5169 11.1116 18.75 11.1116C18.2561 11.1112 17.8433 10.839 17.5968 10.451ZM20.8333 18.0556C20.0664 18.0556 19.4444 17.4336 19.4444 16.6667C19.4444 15.8998 20.0664 15.2778 20.8333 15.2778C21.6003 15.2778 22.2222 15.8998 22.2222 16.6667C22.2222 17.4336 21.6003 18.0556 20.8333 18.0556Z" fill="white"/>
</g>
<defs>
<clipPath id="clip0_558_1686">
<rect width="25" height="25" fill="white"/>
</clipPath>
</defs>
</svg>
