<svg width="18" height="18" viewBox="0 0 18 18" fill="none" xmlns="http://www.w3.org/2000/svg">
<path d="M7.50536 6.83438L11.3304 9.00804L7.50536 11.1817V6.83438ZM18 1.92857V16.0714C18 17.1362 17.1362 18 16.0714 18H1.92857C0.863839 18 0 17.1362 0 16.0714V1.92857C0 0.863839 0.863839 0 1.92857 0H16.0714C17.1362 0 18 0.863839 18 1.92857ZM16.3125 9.01205C16.3125 9.01205 16.3125 6.61741 16.0071 5.4683C15.8384 4.83348 15.3442 4.33527 14.7134 4.16652C13.5763 3.85714 9 3.85714 9 3.85714C9 3.85714 4.42366 3.85714 3.28661 4.16652C2.6558 4.33527 2.16161 4.83348 1.99286 5.4683C1.6875 6.61339 1.6875 9.01205 1.6875 9.01205C1.6875 9.01205 1.6875 11.4067 1.99286 12.5558C2.16161 13.1906 2.6558 13.6687 3.28661 13.8375C4.42366 14.1429 9 14.1429 9 14.1429C9 14.1429 13.5763 14.1429 14.7134 13.8335C15.3442 13.6647 15.8384 13.1866 16.0071 12.5518C16.3125 11.4067 16.3125 9.01205 16.3125 9.01205Z" fill="#0D76BC"/>
</svg>
