<svg width="25" height="26" viewBox="0 0 25 26" fill="none" xmlns="http://www.w3.org/2000/svg">
<path d="M22.6562 8.3125H2.34375C2.13655 8.3125 1.93784 8.39481 1.79132 8.54132C1.64481 8.68784 1.5625 8.88655 1.5625 9.09375L1.5625 10.6562C1.5625 10.8635 1.64481 11.0622 1.79132 11.2087C1.93784 11.3552 2.13655 11.4375 2.34375 11.4375H22.6562C22.8635 11.4375 23.0622 11.3552 23.2087 11.2087C23.3552 11.0622 23.4375 10.8635 23.4375 10.6562V9.09375C23.4375 8.88655 23.3552 8.68784 23.2087 8.54132C23.0622 8.39481 22.8635 8.3125 22.6562 8.3125ZM22.6562 20.8125H2.34375C2.13655 20.8125 1.93784 20.8948 1.79132 21.0413C1.64481 21.1878 1.5625 21.3865 1.5625 21.5938L1.5625 23.1562C1.5625 23.3635 1.64481 23.5622 1.79132 23.7087C1.93784 23.8552 2.13655 23.9375 2.34375 23.9375H22.6562C22.8635 23.9375 23.0622 23.8552 23.2087 23.7087C23.3552 23.5622 23.4375 23.3635 23.4375 23.1562V21.5938C23.4375 21.3865 23.3552 21.1878 23.2087 21.0413C23.0622 20.8948 22.8635 20.8125 22.6562 20.8125ZM6.84082 5.1875H18.1597C18.2372 5.1875 18.314 5.17221 18.3857 5.14252C18.4573 5.11282 18.5224 5.06929 18.5773 5.01442C18.6321 4.95955 18.6756 4.89442 18.7052 4.82274C18.7348 4.75106 18.7501 4.67424 18.75 4.59668V2.65283C18.75 2.57531 18.7347 2.49854 18.7051 2.42692C18.6754 2.3553 18.6319 2.29022 18.5771 2.2354C18.5223 2.18059 18.4572 2.1371 18.3856 2.10744C18.314 2.07777 18.2372 2.0625 18.1597 2.0625H6.84082C6.76326 2.06244 6.68644 2.07766 6.61476 2.1073C6.54308 2.13693 6.47795 2.18041 6.42308 2.23523C6.36821 2.29006 6.32468 2.35515 6.29498 2.42681C6.26529 2.49846 6.25 2.57527 6.25 2.65283V4.59668C6.25 4.75338 6.31225 4.90365 6.42305 5.01445C6.53385 5.12525 6.68412 5.1875 6.84082 5.1875ZM18.1597 17.6875C18.2372 17.6875 18.314 17.6722 18.3857 17.6425C18.4573 17.6128 18.5224 17.5693 18.5773 17.5144C18.6321 17.4596 18.6756 17.3944 18.7052 17.3227C18.7348 17.2511 18.7501 17.1742 18.75 17.0967V15.1528C18.75 14.9963 18.6878 14.8461 18.5771 14.7354C18.4664 14.6247 18.3162 14.5625 18.1597 14.5625H6.84082C6.76326 14.5624 6.68644 14.5777 6.61476 14.6073C6.54308 14.6369 6.47795 14.6804 6.42308 14.7352C6.36821 14.7901 6.32468 14.8552 6.29498 14.9268C6.26529 14.9985 6.25 15.0753 6.25 15.1528V17.0967C6.25 17.1743 6.26528 17.2511 6.29497 17.3228C6.32467 17.3945 6.36818 17.4596 6.42305 17.5145C6.47791 17.5693 6.54304 17.6128 6.61472 17.6425C6.6864 17.6722 6.76323 17.6875 6.84082 17.6875H18.1597Z" fill="white"/>
</svg>
